<svg width="14" height="15" viewBox="0 0 14 15" fill="none" xmlns="http://www.w3.org/2000/svg">
<path d="M6.552 14.2825C6.42 13.5025 6.072 12.6625 5.508 11.7625C4.944 10.8505 4.14 10.0045 3.096 9.2245C2.064 8.4445 1.032 7.9465 0 7.7305V6.9745C1.02 6.7345 1.998 6.2905 2.934 5.6425C3.882 4.9825 4.674 4.1905 5.31 3.2665C5.958 2.3185 6.372 1.3825 6.552 0.458496H7.308C7.416 1.0585 7.632 1.6765 7.956 2.3125C8.28 2.9365 8.694 3.5365 9.198 4.1125C9.714 4.6765 10.29 5.1865 10.926 5.6425C11.874 6.3145 12.84 6.7585 13.824 6.9745V7.7305C13.164 7.8625 12.48 8.1325 11.772 8.5405C11.076 8.9485 10.428 9.4345 9.828 9.9985C9.228 10.5505 8.736 11.1325 8.352 11.7445C7.788 12.6445 7.44 13.4905 7.308 14.2825H6.552Z" fill="#141414"/>
</svg>
